<?xml version="1.0" standalone="no"?>
<!DOCTYPE svg PUBLIC "-//W3C//DTD SVG 20010904//EN"
 "http://www.w3.org/TR/2001/REC-SVG-20010904/DTD/svg10.dtd">
<svg version="1.0" xmlns="http://www.w3.org/2000/svg"
 width="260.000000pt" height="260.000000pt" viewBox="0 0 260.000000 260.000000"
 preserveAspectRatio="xMidYMid meet">
<metadata>
Created by potrace 1.11, written by Peter Selinger 2001-2013
</metadata>
<g transform="translate(0.000000,260.000000) scale(0.100000,-0.100000)"
fill="#000000" stroke="none">
<path d="M1177 2575 c-79 -16 -121 -40 -171 -95 -34 -38 -36 -44 -36 -107 l0
-67 54 -53 c37 -35 51 -55 43 -60 -7 -4 -79 -8 -162 -8 l-150 0 0 -55 0 -55
123 0 122 0 0 -102 c0 -118 -6 -113 105 -90 78 17 308 13 405 -6 57 -12 77
-13 82 -4 4 7 8 74 8 149 l0 137 -47 3 c-25 2 -48 8 -50 14 -2 7 14 25 35 40
59 43 81 81 84 144 3 85 -40 144 -142 193 -70 34 -201 44 -303 22z"/>
<path d="M1187 1864 c-1 -2 -25 -5 -52 -7 -195 -19 -408 -110 -544 -232 -122
-111 -183 -200 -232 -340 -22 -62 -19 -313 5 -389 74 -246 262 -417 551 -504
99 -29 149 -35 330 -36 184 -1 258 7 365 39 3 1 19 5 35 9 52 14 248 112 290
146 101 80 129 107 171 165 24 35 44 67 44 72 0 5 -12 15 -27 22 -30 14 -30
14 -108 -82 -39 -49 -136 -127 -206 -166 -137 -76 -256 -105 -439 -105 -125 0
-180 13 -275 67 -115 65 -255 255 -279 378 -2 13 -12 53 -21 88 -27 102 -24
264 7 391 31 127 132 267 234 324 84 47 145 59 273 54 105 -4 122 -8 181 -37
64 -31 140 -92 140 -111 0 -6 4 -10 9 -10 12 0 78 -129 84 -165 3 -16 11 -57
17 -90 8 -34 10 -77 6 -98 l-7 -37 -459 0 c-513 0 -471 7 -468 -73 l1 -38 704
4 c388 3 707 8 711 12 13 12 -28 169 -64 246 -20 43 -40 79 -43 79 -3 0 -12
13 -19 28 -16 38 -145 170 -207 214 -174 122 -358 179 -588 182 -65 1 -119 1
-120 0z"/>
<path d="M1128 1710 c-31 -10 -73 -27 -92 -40 l-36 -22 0 -119 c0 -70 -5 -129
-11 -141 -24 -44 -72 -78 -121 -84 -47 -6 -69 -28 -53 -54 4 -6 162 -10 451
-10 l444 0 0 25 c0 18 -8 28 -27 36 -69 26 -93 84 -93 225 0 90 0 91 -32 120
-37 33 -83 57 -143 73 -62 17 -221 12 -287 -9z"/>
<path d="M1200 1070 l-385 -5 4 -35 c3 -40 14 -50 54 -50 45 0 93 -28 110 -63
9 -18 32 -79 52 -137 37 -107 57 -161 80 -215 15 -37 75 -61 190 -75 79 -10
212 -4 235 10 9 6 -1 54 -40 191 -29 101 -53 199 -53 218 0 46 31 67 109 76
62 6 62 6 66 41 4 33 -4 48 -27 49 -5 0 -183 -2 -395 -5z"/>
<path d="M1770 1031 c0 -39 0 -39 48 -46 26 -3 56 -14 68 -23 39 -33 38 -65
-6 -194 -46 -132 -44 -153 9 -122 35 21 60 67 92 169 11 39 29 83 38 98 24 43
79 67 151 67 l60 0 0 45 0 45 -230 0 -230 0 0 -39z"/>
<path d="M1799 436 c-32 -22 -41 -38 -71 -128 -31 -93 -37 -103 -60 -106 -24
-3 -28 2 -42 51 -9 30 -16 59 -16 64 0 5 -6 17 -13 27 -11 14 -18 16 -33 8
-10 -5 -41 -12 -69 -16 -27 -3 -79 -11 -115 -16 -36 -5 -89 -10 -117 -10 -38
0 -53 -4 -53 -14 0 -7 17 -62 39 -122 l38 -109 221 -3 221 -2 20 62 c11 35 38
117 60 183 23 66 42 126 44 134 4 24 -17 22 -54 -3z"/>
</g>
</svg>
